<mxfile host="app.diagrams.net" agent="Mozilla/5.0 (X11; Linux x86_64) AppleWebKit/537.36 (KHTML, like Gecko) Chrome/139.0.0.0 Safari/537.36" version="28.2.8">
  <diagram name="Azure Landing Zone – Zero Trust" id="0">
    <mxGraphModel dx="748" dy="518" grid="1" gridSize="10" guides="1" tooltips="1" connect="1" arrows="1" fold="1" page="1" pageScale="1" pageWidth="1654" pageHeight="1169" math="0" shadow="0" adaptiveColors="none">
      <root>
        <mxCell id="0" />
        <mxCell id="1" parent="0" />
        <mxCell id="gov" value="Governance &amp; Identity" style="rounded=1;fillColor=#E6F2FF;fontSize=14;fontStyle=1;whiteSpace=wrap;html=1;" parent="1" vertex="1">
          <mxGeometry x="20" y="20" width="360" height="160" as="geometry" />
        </mxCell>
        <mxCell id="gov_items" value="Management Groups: Platform, Non-Production, Production&#xa;Baseline Policies: Deny Public IP&#xa;Entra ID: Workload Identities (UAMI)&#xa;RBAC @ MG/Subscription" style="rounded=0;fillColor=#FFFFFF;fontSize=11;whiteSpace=wrap;html=1;" parent="gov" vertex="1">
          <mxGeometry x="10" y="30" width="340" height="110" as="geometry" />
        </mxCell>
        <mxCell id="cicd" value="Azure DevOps Pipeline (OIDC – Secret-less)" style="rounded=1;fillColor=#E6FFE6;fontSize=14;fontStyle=1;whiteSpace=wrap;html=1;" parent="1" vertex="1">
          <mxGeometry x="20" y="200" width="360" height="110" as="geometry" />
        </mxCell>
        <mxCell id="cicd_items" value="Service Connections: azrm-oidc-platform / nonprod / prod&#xa;No SP secrets; federated identity" style="rounded=0;fillColor=#FFFFFF;fontSize=11;whiteSpace=wrap;html=1;" parent="cicd" vertex="1">
          <mxGeometry x="10" y="30" width="340" height="60" as="geometry" />
        </mxCell>
        <mxCell id="hub" value="" style="rounded=1;fillColor=#FFF2E6;fontSize=14;fontStyle=1;whiteSpace=wrap;html=1;" parent="1" vertex="1">
          <mxGeometry x="420" y="20" width="620" height="350" as="geometry" />
        </mxCell>
        <mxCell id="hub_vnet" value="Hub VNet: vnet-hub-weu" style="rounded=1;fillColor=#FFFFFF;fontSize=12;whiteSpace=wrap;html=1;" parent="hub" vertex="1">
          <mxGeometry x="20" y="30" width="280" height="60" as="geometry" />
        </mxCell>
        <mxCell id="hub_subnets" value="Subnets:&#xa;- AzureFirewallSubnet (Azure Firewall)&#xa;- GatewaySubnet (VPN/ER, optional)&#xa;- AzureBastionSubnet (with mandatory NSG)" style="rounded=0;fillColor=#FFFFFF;fontSize=11;whiteSpace=wrap;html=1;" parent="hub" vertex="1">
          <mxGeometry x="20" y="100" width="280" height="140" as="geometry" />
        </mxCell>
        <mxCell id="hub_dns" value="Private DNS Zones (central):&#xa;- privatelink.vaultcore.azure.net&#xa;- privatelink.azurecr.io&#xa;- others as needed&#xa;Spoke VNet links created automatically" style="rounded=0;fillColor=#FFFFFF;fontSize=11;whiteSpace=wrap;html=1;" parent="hub" vertex="1">
          <mxGeometry x="320" y="30" width="260" height="160" as="geometry" />
        </mxCell>
        <mxCell id="hub_notes" value="UDR: 0.0.0.0/0 via Azure Firewall&#xa;Connectivity Subscription resources" style="rounded=0;fillColor=#FFFFFF;fontSize=11;whiteSpace=wrap;html=1;" parent="hub" vertex="1">
          <mxGeometry x="320" y="200" width="260" height="60" as="geometry" />
        </mxCell>
        <mxCell id="qK4hYUC7DdoMwfUFOLQs-1" value="&lt;span style=&quot;color: rgb(0, 0, 0); font-family: Helvetica; font-size: 14px; font-style: normal; font-variant-ligatures: normal; font-variant-caps: normal; font-weight: 700; letter-spacing: normal; orphans: 2; text-align: center; text-indent: 0px; text-transform: none; widows: 2; word-spacing: 0px; -webkit-text-stroke-width: 0px; white-space: normal; text-decoration-thickness: initial; text-decoration-style: initial; text-decoration-color: initial; float: none; display: inline !important;&quot;&gt;Platform Shared Services (Hub)&lt;/span&gt;" style="text;whiteSpace=wrap;html=1;labelBackgroundColor=#F2F2F2;" vertex="1" parent="hub">
          <mxGeometry x="40" y="250" width="240" height="40" as="geometry" />
        </mxCell>
        <mxCell id="spokes" value="Environment Spokes" style="rounded=1;fillColor=#F2FFE6;fontSize=14;fontStyle=1;whiteSpace=wrap;html=1;" parent="1" vertex="1">
          <mxGeometry x="430" y="410" width="600" height="270" as="geometry" />
        </mxCell>
        <mxCell id="spoke_dev" value="&lt;b&gt;&lt;font style=&quot;font-size: 14px;&quot;&gt;Spoke – Dev&lt;/font&gt;&lt;/b&gt;&lt;div&gt;&lt;span style=&quot;font-size: 14px;&quot;&gt;&lt;b&gt;&lt;br&gt;&lt;/b&gt;&lt;/span&gt;- VNet + subnets&lt;br&gt;- Default NSG on all subnets&lt;br&gt;- Peered to Hub&lt;br&gt;- DNS links to central zones&lt;/div&gt;" style="rounded=0;fillColor=#FFFFFF;fontSize=11;whiteSpace=wrap;html=1;" parent="spokes" vertex="1">
          <mxGeometry x="20" y="30" width="170" height="200" as="geometry" />
        </mxCell>
        <mxCell id="spoke_qa" value="&lt;b&gt;&lt;font style=&quot;font-size: 14px;&quot;&gt;Spoke – QA&lt;/font&gt;&lt;/b&gt;&lt;div&gt;&lt;br&gt;- VNet + subnets&lt;br&gt;- Default NSG on all subnets&lt;br&gt;- Peered to Hub&lt;br&gt;- DNS links to central zones&lt;/div&gt;" style="rounded=0;fillColor=#FFFFFF;fontSize=11;whiteSpace=wrap;html=1;" parent="spokes" vertex="1">
          <mxGeometry x="210" y="30" width="170" height="200" as="geometry" />
        </mxCell>
        <mxCell id="spoke_prod" value="&lt;b&gt;&lt;font style=&quot;font-size: 14px;&quot;&gt;Spoke – Prod&lt;/font&gt;&lt;/b&gt;&lt;div&gt;&lt;br&gt;- VNet + subnets&lt;br&gt;- Default NSG on all subnets&lt;br&gt;- Peered to Hub&lt;br&gt;- DNS links to central zones&lt;/div&gt;" style="rounded=0;fillColor=#FFFFFF;fontSize=11;whiteSpace=wrap;html=1;" parent="spokes" vertex="1">
          <mxGeometry x="400" y="30" width="180" height="200" as="geometry" />
        </mxCell>
        <mxCell id="prod_workload" value="Prod Workload Resources" style="rounded=1;fillColor=#FFE6F2;fontSize=13;fontStyle=1;whiteSpace=wrap;html=1;" parent="1" vertex="1">
          <mxGeometry x="1070" y="20" width="360" height="300" as="geometry" />
        </mxCell>
        <mxCell id="prod_items" value="AKS (private), ACR, Key Vault, Private Endpoints&#xa;UAMI for workload access (secret-less)&#xa;RBAC: Key Vault Secrets User on UAMI&#xa;ACR push/pull tied to federated identity (OIDC)" style="rounded=0;fillColor=#FFFFFF;fontSize=11;whiteSpace=wrap;html=1;" parent="prod_workload" vertex="1">
          <mxGeometry x="20" y="30" width="320" height="240" as="geometry" />
        </mxCell>
        <mxCell id="edge1" style="edgeStyle=orthogonalEdgeStyle;rounded=0;orthogonalLoop=1;jettySize=auto;html=1;strokeColor=#333333;" parent="1" source="cicd" target="gov" edge="1">
          <mxGeometry relative="1" as="geometry" />
        </mxCell>
        <mxCell id="edge2" style="edgeStyle=orthogonalEdgeStyle;rounded=0;orthogonalLoop=1;jettySize=auto;html=1;strokeColor=#333333;" parent="1" source="gov" target="hub" edge="1">
          <mxGeometry relative="1" as="geometry" />
        </mxCell>
        <mxCell id="edge3" style="edgeStyle=orthogonalEdgeStyle;rounded=0;orthogonalLoop=1;jettySize=auto;html=1;strokeColor=#333333;" parent="1" source="hub" target="spokes" edge="1">
          <mxGeometry relative="1" as="geometry" />
        </mxCell>
        <mxCell id="edge4" style="edgeStyle=orthogonalEdgeStyle;rounded=0;orthogonalLoop=1;jettySize=auto;html=1;strokeColor=#333333;" parent="1" source="spoke_prod" target="prod_workload" edge="1">
          <mxGeometry relative="1" as="geometry" />
        </mxCell>
      </root>
    </mxGraphModel>
  </diagram>
</mxfile>
